<svg xmlns="http://www.w3.org/2000/svg" version="1.1" xmlns:xlink="http://www.w3.org/1999/xlink" width="1000" height="1000"><metadata><rdf:RDF xmlns:rdf="http://www.w3.org/1999/02/22-rdf-syntax-ns#" xmlns:dc="http://purl.org/dc/elements/1.1/"><rdf:Description><dc:creator>RealFaviconGenerator</dc:creator><dc:source>https://realfavicongenerator.net</dc:source></rdf:Description></rdf:RDF></metadata><style>
    #light-icon {
      display: inline;
    }
    #dark-icon {
      display: none;
    }

    @media (prefers-color-scheme: dark) {
      #light-icon {
        display: none;
      }
      #dark-icon {
        display: inline;
      }
    }
  </style><g id="light-icon"><svg xmlns="http://www.w3.org/2000/svg" version="1.1" xmlns:xlink="http://www.w3.org/1999/xlink" width="1000" height="1000"><g><g transform="matrix(2.4154589371980677,0,0,2.4154589371980677,31.400966183574837,0)"><svg xmlns="http://www.w3.org/2000/svg" viewBox="62 49 388 414" width="388" height="414"><g fill="none" stroke-width="30" stroke-linecap="round" stroke-linejoin="round">
    <polyline points="131,118 381,118 381,256 256,256" stroke="red"></polyline>
    <polygon points="185,64 77,118 185,172" fill="red" stroke="none"></polygon>
    <polyline points="256,256 131,256 131,394 381,394" stroke="blue"></polyline>
    <polygon points="327,340 435,394 327,448" fill="blue" stroke="none"></polygon>
  </g></svg></g></g></svg></g><g id="dark-icon"><svg xmlns="http://www.w3.org/2000/svg" version="1.1" xmlns:xlink="http://www.w3.org/1999/xlink" width="1000" height="1000"><g clip-path="url(#SvgjsClipPath1129)"><rect width="1000" height="1000" fill="#e8eef5"></rect><g transform="matrix(1.932367149758454,0,0,1.932367149758454,125.12077294685992,100)"><svg xmlns="http://www.w3.org/2000/svg" viewBox="62 49 388 414" width="388" height="414"><g fill="none" stroke-width="30" stroke-linecap="round" stroke-linejoin="round">
    <polyline points="131,118 381,118 381,256 256,256" stroke="red"></polyline>
    <polygon points="185,64 77,118 185,172" fill="red" stroke="none"></polygon>
    <polyline points="256,256 131,256 131,394 381,394" stroke="blue"></polyline>
    <polygon points="327,340 435,394 327,448" fill="blue" stroke="none"></polygon>
  </g></svg></g></g><defs><clipPath id="SvgjsClipPath1129"><rect width="1000" height="1000" x="0" y="0" rx="500" ry="500"></rect></clipPath></defs></svg></g></svg>