<?xml version="1.0" encoding="utf-8"?><!-- Uploaded to: SVG Repo, www.svgrepo.com, Generator: SVG Repo Mixer Tools -->
<svg fill="#000000" width="800px" height="800px" viewBox="0 0 24 24" id="database-error" xmlns="http://www.w3.org/2000/svg" class="icon line"><line id="primary-upstroke" x1="17.05" y1="20.5" x2="16.95" y2="20.5" style="fill: none; stroke: rgb(0, 0, 0); stroke-linecap: round; stroke-linejoin: round; stroke-width: 1.95;"></line><path id="primary" d="M21,12V10a1,1,0,0,0-1-1H4a1,1,0,0,0-1,1v4a1,1,0,0,0,1,1h8" style="fill: none; stroke: rgb(0, 0, 0); stroke-linecap: round; stroke-linejoin: round; stroke-width: 1.5;"></path><path id="primary-2" data-name="primary" d="M12,15H4a1,1,0,0,0-1,1v4a1,1,0,0,0,1,1h8" style="fill: none; stroke: rgb(0, 0, 0); stroke-linecap: round; stroke-linejoin: round; stroke-width: 1.5;"></path><path id="primary-3" data-name="primary" d="M20,9H4A1,1,0,0,1,3,8V4A1,1,0,0,1,4,3H20a1,1,0,0,1,1,1V8A1,1,0,0,1,20,9Zm-3,4v3" style="fill: none; stroke: rgb(0, 0, 0); stroke-linecap: round; stroke-linejoin: round; stroke-width: 1.5;"></path></svg>